<?xml version="1.0" standalone="no"?>
<!DOCTYPE svg PUBLIC "-//W3C//DTD SVG 20010904//EN"
 "http://www.w3.org/TR/2001/REC-SVG-20010904/DTD/svg10.dtd">
<svg version="1.0" xmlns="http://www.w3.org/2000/svg"
 width="512.000000pt" height="512.000000pt" viewBox="0 0 512.000000 512.000000"
 preserveAspectRatio="xMidYMid meet">

<g transform="translate(0.000000,512.000000) scale(0.100000,-0.100000)"
fill="#ffffff" stroke="none">
<path d="M2257 5085 c-761 -96 -1419 -505 -1837 -1140 -83 -126 -212 -384
-265 -529 -163 -444 -197 -956 -95 -1431 51 -236 163 -521 290 -738 327 -559
855 -975 1473 -1161 189 -56 261 -69 367 -64 255 14 447 160 543 415 21 56 22
76 27 552 l5 494 69 19 c298 81 550 322 653 623 45 134 53 214 53 554 0 286
-2 320 -19 356 -40 88 -98 115 -246 115 l-105 0 0 278 c0 248 -2 281 -19 317
-71 153 -291 153 -362 0 -17 -36 -19 -69 -19 -317 l0 -278 -200 0 -200 0 0
278 c0 248 -2 281 -19 317 -22 48 -54 79 -103 100 -100 41 -214 -3 -259 -100
-17 -36 -19 -69 -19 -317 l0 -278 -110 0 c-153 0 -210 -26 -251 -115 -17 -36
-19 -70 -19 -356 0 -336 8 -425 51 -552 92 -268 310 -497 569 -596 41 -16 92
-32 113 -36 l37 -7 0 -447 c0 -276 -4 -460 -10 -483 -22 -79 -102 -137 -190
-138 -25 0 -95 13 -156 30 -370 99 -689 284 -965 559 -249 250 -422 529 -532
863 -252 759 -45 1615 526 2189 398 398 898 618 1452 636 514 17 983 -133
1396 -448 367 -279 656 -718 769 -1167 258 -1024 -234 -2061 -1192 -2511 -110
-52 -138 -75 -163 -133 -56 -136 71 -299 214 -273 54 9 322 145 441 223 389
255 691 594 899 1013 90 181 149 340 196 529 55 224 70 363 69 625 -1 246 -12
349 -60 562 -167 744 -676 1385 -1369 1723 -245 120 -476 193 -745 235 -144
23 -537 29 -683 10z m883 -2517 c0 -290 -33 -393 -169 -529 -184 -184 -424
-226 -660 -114 -97 46 -213 161 -259 255 -49 100 -62 179 -62 388 l0 182 575
0 575 0 0 -182z"/>
</g>
</svg>
